<svg xmlns="http://www.w3.org/2000/svg" viewBox="0 0 123.72 170.6"><defs><style>.cls-1{fill:none;}</style></defs><title>jpLogo-svg</title><g id="Layer_2" data-name="Layer 2"><g id="Layer_1-2" data-name="Layer 1"><path d="M70.66,47.94V86.22h7.43a44.9,44.9,0,0,0,8.62-.77V48.77a42.1,42.1,0,0,0-8.62-.83Z"/><path d="M86.71,22.75V0H17V13.83h53.7v8.39h7.43A74.86,74.86,0,0,1,86.71,22.75Z"/><path d="M78.09,111.94h-9.4c-1.59,5.86-4.34,10.73-8.88,14-4,2.92-9.49,4.58-16.81,4.58a27.36,27.36,0,0,1-10.73-2.06c-10.92-4.6-15.86-16.27-16.72-27.92L0,102.66C1.38,122.49,12.72,139,32.27,143.45A48.23,48.23,0,0,0,43,144.66a52.21,52.21,0,0,0,16.81-2.54c13.73-4.61,21.58-15.41,24.93-30.47C82.58,111.83,80.38,111.94,78.09,111.94Z"/><path class="cls-1" d="M78.09,42.2h-24V92h24c19,0,29.78-8.17,29.78-24.63C107.87,51.48,97.07,42.2,78.09,42.2Z"/><path class="cls-1" d="M64.3,106.2H78.09c1.22,0,2.51,0,3.85-.13-1.27.07-2.54.13-3.85.13h-24v16.46"/><path d="M38,150.15V170.6h16V149.44a64.52,64.52,0,0,1-11.07,1C41.34,150.4,39.68,150.3,38,150.15Z"/><path d="M123.72,67.33c0-24.53-18-39.37-45.63-39.37H38v96.29a23.33,23.33,0,0,0,5,.53,25.4,25.4,0,0,0,11.07-2.12V106.2h24c1.31,0,2.58-.06,3.85-.13.74,0,1.48-.07,2.27-.14C108.36,104,123.72,90.56,123.72,67.33ZM78.09,92h-24V42.2h24c19,0,29.78,9.28,29.78,25.13C107.87,83.79,97.07,92,78.09,92Z"/><path d="M84.21,105.93c-.79.07-1.53.1-2.27.14C82.7,106,83.46,106,84.21,105.93Z"/></g></g></svg>